<svg width="375" height="200" viewBox="0 0 375 200" fill="none" xmlns="http://www.w3.org/2000/svg">
<g clip-path="url(#clip0_149_3751)">
<ellipse cx="184" cy="72.5" rx="319" ry="128.5" fill="url(#paint0_linear_149_3751)"/>
<ellipse cx="184" cy="72.5" rx="319" ry="128.5" fill="url(#paint1_linear_149_3751)"/>
<g opacity="0.2" clip-path="url(#clip1_149_3751)">
<path style="mix-blend-mode:color-dodge" d="M-507.497 202.869C-506.225 202.869 -505.16 203.745 -504.834 204.913H-469.718L-455.39 190.585H-333.104L-309.773 213.916H-268.456L-240.178 185.637H-192.211L-150.241 227.608H-42.1794L-11.7366 258.051H0.512642L21.5236 279.062H59.5599L105.31 324.829C106.375 324.228 107.732 324.365 108.643 325.276C109.725 326.358 109.725 328.127 108.643 329.21C107.561 330.292 105.791 330.292 104.709 329.21C103.798 328.299 103.661 326.942 104.262 325.877L58.9414 280.556H20.9224L-0.0886688 259.545H-12.3379L-42.7807 229.103H-150.842L-192.813 187.132H-239.559L-267.837 215.41H-310.392L-333.722 192.08H-454.789L-469.117 206.408H-504.834C-505.16 207.576 -506.225 208.452 -507.497 208.452C-509.043 208.452 -510.28 207.215 -510.28 205.669C-510.28 204.123 -509.043 202.886 -507.497 202.886V202.869Z" fill="url(#paint2_linear_149_3751)"/>
<path style="mix-blend-mode:color-dodge" d="M-512.376 67.4742C-511.104 67.4742 -510.022 68.3332 -509.696 69.5186H-453.243L-441.354 81.4071H-361.76L-346.367 65.9967H-310.546L-304.207 72.3189H-248.939L-219.476 42.8554H-162.336L-136.806 68.3847H-84.8714L-51.5768 35.0901H-17.7668L8.89639 61.7533H27.966L67.4626 22.2567H90.1229L120.222 -7.85962C119.621 -8.92478 119.758 -10.282 120.669 -11.1925C121.751 -12.2749 123.521 -12.2749 124.603 -11.1925C125.685 -10.1102 125.685 -8.34066 124.603 -7.25833C123.692 -6.3478 122.335 -6.21036 121.27 -6.81165L90.7242 23.7342H68.0639L28.5674 63.2307H8.26071L-18.4025 36.5676H-50.9755L-84.2702 69.845H-137.425L-162.954 44.3329H-218.875L-248.338 73.7964H-304.826L-311.165 67.4742H-345.765L-361.158 82.8673H-441.973L-453.861 70.9789H-509.696C-510.022 72.1471 -511.087 73.0233 -512.376 73.0233C-513.905 73.0233 -515.159 71.7691 -515.159 70.2401C-515.159 68.7111 -513.905 67.457 -512.376 67.457V67.4742Z" fill="url(#paint3_linear_149_3751)"/>
<path style="mix-blend-mode:color-dodge" d="M-504.456 147.824C-503.185 147.824 -502.119 148.701 -501.793 149.869H-393.044L-360.557 117.399H-316.955L-291.631 142.705H-228.203L-200.148 114.65H-153.797L-143.128 125.319H-102.567L-85.9538 108.706H-53.1746L-35.256 126.624H-0.72438L23.2587 102.641H66.9816L98.1802 71.4427H206.877L230.998 47.3049C230.397 46.2398 230.534 44.8826 231.445 43.972C232.527 42.8897 234.296 42.8897 235.379 43.972C236.461 45.0544 236.461 46.8239 235.379 47.9062C234.468 48.8168 233.111 48.9542 232.046 48.3529L207.479 72.9201H98.7987L67.6 104.119H23.8772L-0.105911 128.102H-35.8572L-53.7759 110.183H-85.3353L-101.948 126.813H-143.73L-154.398 116.145H-199.53L-227.585 144.199H-292.25L-317.573 118.894H-359.956L-392.426 151.363H-501.793C-502.119 152.532 -503.185 153.408 -504.456 153.408C-505.985 153.408 -507.239 152.171 -507.239 150.625C-507.239 149.079 -506.002 147.842 -504.456 147.842V147.824Z" fill="url(#paint4_linear_149_3751)"/>
<path style="mix-blend-mode:color-dodge" d="M-454.479 175.295L-470.955 191.753H-501.174C-501.501 192.939 -502.566 193.798 -503.837 193.798C-505.366 193.798 -506.62 192.561 -506.62 191.015C-506.62 189.469 -505.383 188.232 -503.837 188.232C-502.566 188.232 -501.501 189.091 -501.174 190.276H-471.556L-455.081 173.818H-387.375L-352.311 138.754H-324.548L-302.437 160.864H-220.249L-195.63 136.245H-159.26L-139.555 155.951H-78.154L-59.9605 137.757H15.1671L58.8212 181.411H145.683L162.553 198.282C163.619 197.681 164.976 197.818 165.886 198.728C166.969 199.811 166.969 201.58 165.886 202.663C164.804 203.745 163.034 203.745 161.952 202.663C161.042 201.752 160.904 200.395 161.505 199.33L145.064 182.906H58.2027L14.5486 139.252H-59.3421L-77.5527 157.462H-140.191L-159.913 137.757H-195.046L-219.665 162.376H-303.073L-325.184 140.265H-351.709L-386.773 175.329H-454.479V175.295Z" fill="url(#paint5_linear_149_3751)"/>
<path style="mix-blend-mode:color-dodge" d="M154.066 273.53H117.164L88.4565 244.822H17.1084L-18.1448 209.569H-143.609L-181.8 171.395C-182.865 171.997 -184.223 171.859 -185.133 170.949C-186.216 169.866 -186.216 168.097 -185.133 167.014C-184.051 165.932 -182.281 165.932 -181.199 167.014C-180.306 167.925 -180.151 169.282 -180.752 170.347L-143.008 208.091H-17.5434L17.7097 243.345H89.0578L117.765 272.052H154.668L181.726 299.111H228.455C228.782 297.942 229.847 297.066 231.118 297.066C232.647 297.066 233.901 298.303 233.901 299.849C233.901 301.395 232.664 302.632 231.118 302.632C229.847 302.632 228.782 301.756 228.455 300.588H181.125L154.066 273.53Z" fill="url(#paint6_linear_149_3751)"/>
<path style="mix-blend-mode:color-dodge" d="M137.264 248.533L113.9 225.151H19.5994L-12.3895 193.179H-32.8679C-33.1944 194.348 -34.2595 195.224 -35.5308 195.224C-37.0598 195.224 -38.2968 193.97 -38.2968 192.441C-38.2968 190.912 -37.0598 189.657 -35.5308 189.657C-34.2423 189.657 -33.1772 190.516 -32.8679 191.702H-11.771L20.2007 223.691H114.501L137.883 247.055H171.109L188.168 264.115C189.234 263.514 190.591 263.651 191.501 264.562C192.584 265.644 192.584 267.414 191.501 268.496C190.419 269.578 188.65 269.578 187.567 268.496C186.674 267.585 186.536 266.228 187.12 265.163L170.49 248.533H137.264Z" fill="url(#paint7_linear_149_3751)"/>
<path style="mix-blend-mode:color-dodge" d="M190.969 236.421C189.697 236.421 188.615 235.562 188.289 234.377H161.248L127.008 200.137H39.6827L4.01724 164.472H-43.76L-65.0802 185.792H-121.447C-121.774 186.96 -122.839 187.836 -124.11 187.836C-125.639 187.836 -126.876 186.582 -126.876 185.053C-126.876 183.524 -125.639 182.27 -124.11 182.27C-122.822 182.27 -121.774 183.129 -121.447 184.314H-65.6987L-44.3785 162.994H4.60138L40.284 198.66H127.609L161.849 232.899H188.272C188.598 231.731 189.663 230.855 190.952 230.855C192.481 230.855 193.735 232.092 193.735 233.638C193.735 235.184 192.481 236.421 190.952 236.421H190.969Z" fill="url(#paint8_linear_149_3751)"/>
<path style="mix-blend-mode:color-dodge" d="M-416.856 89.619C-415.584 89.619 -414.519 90.478 -414.193 91.6634H-351.898L-339.185 78.9503H-241.999L-217.191 54.1426H-170.049L-138.988 85.2038H-70.6293L-42.6948 57.2693H-12.6128L7.86559 77.7477H37.6212L63.872 51.4969H201.397C201.723 50.3286 202.789 49.4525 204.077 49.4525C205.606 49.4525 206.86 50.6894 206.86 52.2356C206.86 53.7818 205.606 55.0187 204.077 55.0187C202.806 55.0187 201.723 54.1597 201.397 52.9743H64.4905L38.2396 79.2252H7.26428L-13.2141 58.7468H-42.0763L-70.0108 86.6813H-139.607L-170.668 55.62H-216.59L-241.397 80.4278H-338.567L-351.28 93.1409H-414.193C-414.519 94.3091 -415.584 95.1853 -416.856 95.1853C-418.402 95.1853 -419.639 93.9312 -419.639 92.4022C-419.639 90.8732 -418.402 89.619 -416.856 89.619Z" fill="url(#paint9_linear_149_3751)"/>
<path style="mix-blend-mode:color-dodge" d="M-118.595 109.909H-105.882L-92.2587 96.2677H-40.4957L-28.0403 108.723H-0.10582L14.583 94.0343H59.7661L94.1602 59.6402H197.308C197.635 58.4719 198.7 57.5958 199.971 57.5958C201.517 57.5958 202.754 58.8499 202.754 60.3789C202.754 61.9079 201.517 63.1621 199.971 63.1621C198.7 63.1621 197.635 62.3031 197.308 61.1176H94.7787L60.3846 95.5118H15.2015L0.51265 110.201H-28.6588L-41.1142 97.7452H-91.6574L-105.281 111.386H-119.214L-130.484 100.116H-199.994L-228.289 128.411H-278.918L-299.414 107.916H-344.494C-344.82 109.084 -345.885 109.96 -347.174 109.96C-348.703 109.96 -349.957 108.706 -349.957 107.177C-349.957 105.648 -348.703 104.394 -347.174 104.394C-345.903 104.394 -344.82 105.27 -344.494 106.438H-298.795L-278.3 126.934H-228.89L-200.595 98.6385H-129.883L-118.613 109.909H-118.595Z" fill="url(#paint10_linear_149_3751)"/>
<path style="mix-blend-mode:color-dodge" d="M153.036 160.125L180.764 187.854C181.829 187.252 183.203 187.39 184.097 188.3C185.179 189.383 185.179 191.152 184.097 192.234C183.014 193.317 181.245 193.317 180.163 192.234C179.252 191.341 179.115 189.967 179.716 188.902L152.417 161.603H56.0723L22.3997 127.93C21.3346 128.531 19.9774 128.394 19.0668 127.483C17.9845 126.401 17.9845 124.632 19.0668 123.549C20.1664 122.467 21.9187 122.467 23.001 123.549C23.9116 124.46 24.049 125.817 23.4477 126.882L56.6908 160.125H153.036Z" fill="url(#paint11_linear_149_3751)"/>
<path style="mix-blend-mode:color-dodge" d="M230.139 91.9039H201.019L187.498 105.442H156.54L140.958 89.8595H102.217L75.1592 116.918H33.5667C33.2403 118.086 32.1751 118.962 30.9038 118.962C29.3748 118.962 28.1207 117.708 28.1207 116.179C28.1207 114.65 29.3576 113.396 30.9038 113.396C32.1751 113.396 33.2403 114.255 33.5667 115.44H74.5579L101.616 88.3821H141.577L157.159 103.964H186.88L200.418 90.4265H229.52L255.187 64.7769C254.586 63.7118 254.723 62.3374 255.634 61.444C256.733 60.3617 258.486 60.3617 259.568 61.444C260.65 62.5263 260.65 64.2959 259.568 65.3782C258.658 66.2887 257.3 66.4262 256.235 65.8249L230.156 91.9211L230.139 91.9039Z" fill="url(#paint12_linear_149_3751)"/>
<path style="mix-blend-mode:color-dodge" d="M98.3005 143.718L118.195 123.841H142.384L161.145 142.602H188.306L202.256 156.535C203.321 155.933 204.678 156.071 205.589 156.981C206.671 158.064 206.671 159.833 205.589 160.916C204.507 161.998 202.737 161.998 201.655 160.916C200.744 160.005 200.607 158.648 201.208 157.583L187.705 144.079H160.543L141.783 125.319H118.83L98.9533 145.213H61.8448L47.0357 130.404C45.9706 131.005 44.6134 130.868 43.7028 129.957C42.6205 128.875 42.6205 127.105 43.7028 126.023C44.7852 124.941 46.5547 124.941 47.637 126.023C48.5304 126.934 48.685 128.291 48.0837 129.356L62.4633 143.736H98.3349L98.3005 143.718Z" fill="url(#paint13_linear_149_3751)"/>
<path style="mix-blend-mode:color-dodge" d="M136.045 152.996C135.718 154.164 134.653 155.04 133.382 155.04C131.853 155.04 130.599 153.786 130.599 152.257C130.599 150.728 131.836 149.474 133.382 149.474C134.653 149.474 135.718 150.333 136.045 151.518H176.83L207.633 182.322C208.698 181.72 210.056 181.858 210.966 182.768C212.049 183.851 212.049 185.62 210.966 186.703C209.884 187.785 208.114 187.785 207.032 186.703C206.121 185.792 205.984 184.435 206.585 183.37L176.211 152.996H136.045Z" fill="url(#paint14_linear_149_3751)"/>
<path style="mix-blend-mode:color-dodge" d="M199.164 130.645H169.838L155.699 116.506H98.4895L86.601 128.394H63.872C63.5456 129.562 62.4805 130.438 61.192 130.438C59.6629 130.438 58.4088 129.201 58.4088 127.655C58.4088 126.109 59.6629 124.872 61.192 124.872C62.4633 124.872 63.5456 125.748 63.872 126.917H85.9997L97.8882 115.028H156.317L170.456 129.167H199.765L240.928 170.33C241.993 169.729 243.35 169.866 244.261 170.777C245.36 171.859 245.36 173.629 244.261 174.711C243.178 175.793 241.409 175.793 240.327 174.711C239.433 173.8 239.296 172.443 239.88 171.378L199.164 130.645Z" fill="url(#paint15_linear_149_3751)"/>
<path style="mix-blend-mode:color-dodge" d="M89.4186 116.179C88.3362 117.261 86.5839 117.261 85.4844 116.179C84.402 115.097 84.402 113.327 85.4844 112.245C86.3949 111.334 87.7521 111.197 88.8173 111.798L100.345 100.271H131.698C132.025 99.1023 133.09 98.2261 134.361 98.2261C135.89 98.2261 137.144 99.4803 137.144 101.009C137.144 102.538 135.89 103.792 134.361 103.792C133.09 103.792 132.025 102.916 131.698 101.748H100.963L89.8652 112.846C90.4665 113.911 90.3291 115.269 89.4186 116.179Z" fill="url(#paint16_linear_149_3751)"/>
<path style="mix-blend-mode:color-dodge" d="M231.135 -3.63339C229.864 -3.63339 228.799 -4.50957 228.472 -5.6778H190.368L182.585 2.10469H137.471L103.85 35.7257H70.4519C70.1255 36.894 69.0603 37.7701 67.789 37.7701C66.26 37.7701 65.0059 36.5332 65.0059 34.987C65.0059 33.4408 66.26 32.2038 67.789 32.2038C69.0603 32.2038 70.1255 33.08 70.4519 34.2483H103.231L136.852 0.627217H181.967L189.749 -7.17245H228.472C228.799 -8.34068 229.864 -9.21686 231.135 -9.21686C232.664 -9.21686 233.919 -7.96273 233.919 -6.43372C233.919 -4.90471 232.682 -3.65057 231.135 -3.65057V-3.63339Z" fill="url(#paint17_linear_149_3751)"/>
<path style="mix-blend-mode:color-dodge" d="M256.562 11.7426C255.273 11.7426 254.225 10.8836 253.899 9.69815H191.793L185.025 16.467H147.71L118.59 45.5869H79.4542C79.1278 46.7552 78.0626 47.6313 76.7741 47.6313C75.2451 47.6313 74.0082 46.3772 74.0082 44.8482C74.0082 43.3192 75.2451 42.0651 76.7741 42.0651C78.0626 42.0651 79.1278 42.924 79.4542 44.1095H117.972L147.091 14.9896H184.406L191.175 8.22068H253.899C254.225 7.05244 255.29 6.17627 256.562 6.17627C258.091 6.17627 259.345 7.4304 259.345 8.95941C259.345 10.4884 258.108 11.7426 256.562 11.7426Z" fill="url(#paint18_linear_149_3751)"/>
<path style="mix-blend-mode:color-dodge" d="M212.77 16.9481C213.852 15.8658 215.622 15.8658 216.704 16.9481C217.787 18.0304 217.787 19.8 216.704 20.8823C215.794 21.7928 214.436 21.9303 213.371 21.329L195.693 39.0071H151.644C151.318 40.1753 150.252 41.0515 148.981 41.0515C147.452 41.0515 146.198 39.7974 146.198 38.2683C146.198 36.7393 147.435 35.4852 148.981 35.4852C150.252 35.4852 151.318 36.3442 151.644 37.5296H195.092L212.323 20.281C211.722 19.2158 211.877 17.8586 212.77 16.9481Z" fill="url(#paint19_linear_149_3751)"/>
<path style="mix-blend-mode:color-burn" d="M-387.907 110.011H-335.973L-335.887 109.926L-335.801 110.011H-214.184L-188.535 135.661H-109.129L-102.721 129.253C-103.546 127.793 -103.357 125.92 -102.12 124.683C-100.625 123.188 -98.203 123.188 -96.7084 124.683C-95.2137 126.178 -95.2137 128.6 -96.7084 130.078C-97.9625 131.315 -99.8351 131.521 -101.295 130.696L-108.305 137.688H-186.525L-172.042 152.171C-170.582 151.346 -168.709 151.535 -167.472 152.772C-165.978 154.267 -165.978 156.689 -167.472 158.167C-168.967 159.661 -171.389 159.661 -172.867 158.167C-174.104 156.93 -174.31 155.057 -173.485 153.597L-215.043 112.039H-282.492L-264.247 130.284H-236.175C-235.728 128.669 -234.268 127.483 -232.515 127.483C-230.402 127.483 -228.701 129.201 -228.701 131.297C-228.701 133.393 -230.419 135.128 -232.515 135.128C-234.268 135.128 -235.728 133.943 -236.175 132.328H-265.088L-285.378 112.056H-333.791L-287.422 158.424H-201.798L-172.231 187.991H-142.458L-115.778 161.311H-74.993H-75.0102L-60.8539 147.154H-6.42805C-5.98138 145.539 -4.5211 144.354 -2.76875 144.354C-0.655632 144.354 1.04518 146.072 1.04518 148.168C1.04518 150.264 -0.655632 151.999 -2.76875 151.999C-4.5211 151.999 -5.98138 150.814 -6.42805 149.199H-60.0121L-72.1411 161.328H10.3395C10.7862 159.713 12.2465 158.527 14.016 158.527C16.1291 158.527 17.8299 160.245 17.8299 162.341C17.8299 164.437 16.1119 166.155 14.016 166.155C12.2637 166.155 10.7862 164.97 10.3395 163.355H-114.936L-139.589 188.008H66.5864C67.0331 186.393 68.4934 185.208 70.2458 185.208C72.3589 185.208 74.0597 186.926 74.0597 189.022C74.0597 191.118 72.3417 192.836 70.2458 192.836C68.4934 192.836 67.0331 191.65 66.5864 190.035H-173.073L-202.657 160.469H-288.281L-314.343 134.407H-341.212L-351.331 144.526C-350.507 145.986 -350.696 147.859 -351.95 149.096C-353.427 150.59 -355.85 150.59 -357.344 149.096C-358.839 147.601 -358.839 145.179 -357.344 143.701C-356.107 142.464 -354.218 142.275 -352.775 143.1L-342.054 132.38H-316.37L-336.677 112.073H-388.801L-424.793 76.0812H-458.62L-469.581 65.1205H-559.809C-560.256 66.7354 -561.716 67.9208 -563.486 67.9208C-565.599 67.9208 -567.3 66.2028 -567.3 64.1068C-567.3 62.0109 -565.599 60.2929 -563.486 60.2929C-561.734 60.2929 -560.256 61.4783 -559.809 63.0932H-468.756L-457.795 74.054H-423.951L-387.959 110.046L-387.907 110.011Z" fill="url(#paint20_linear_149_3751)"/>
<path style="mix-blend-mode:color-burn" d="M-572.883 92.9004C-571.646 91.6634 -569.774 91.4744 -568.313 92.2991L-550.051 74.0369H-509.936L-489.252 94.7214H-450.786L-416.46 129.047H-386.722C-386.275 127.432 -384.815 126.247 -383.046 126.247C-380.932 126.247 -379.232 127.965 -379.232 130.06C-379.232 132.156 -380.932 133.874 -383.046 133.874C-384.815 133.874 -386.275 132.689 -386.722 131.074H-417.285L-451.628 96.7487H-487.207L-431.751 152.205H-374.662L-350.661 176.188H-264.212L-246.225 194.176H-196.798L-190.511 200.446C-189.05 199.622 -187.178 199.811 -185.941 201.065C-184.446 202.56 -184.446 204.982 -185.941 206.477C-187.435 207.971 -189.858 207.971 -191.335 206.477C-192.572 205.24 -192.778 203.367 -191.954 201.907L-197.623 196.22H-223.908L-188.93 231.216H-164.002L-142.441 209.655H-99.7149C-99.2682 208.04 -97.8079 206.855 -96.0384 206.855C-93.9253 206.855 -92.2244 208.555 -92.2244 210.669C-92.2244 212.782 -93.9253 214.482 -96.0384 214.482C-97.7907 214.482 -99.2682 213.297 -99.7149 211.682H-141.617L-161.133 231.216H-94.2173L-72.0896 209.088H87.7864L99.881 196.993C99.0564 195.533 99.2454 193.66 100.5 192.423C101.994 190.929 104.399 190.929 105.894 192.423C107.389 193.918 107.389 196.34 105.894 197.835C104.657 199.072 102.767 199.278 101.307 198.436L88.611 211.132H-33.0913L0.340775 244.564H150.081L175.232 269.716C176.692 268.891 178.565 269.08 179.802 270.317C181.297 271.812 181.297 274.234 179.802 275.712C178.307 277.206 175.885 277.206 174.39 275.712C173.153 274.475 172.947 272.602 173.772 271.142L149.204 246.574H-0.5354L-35.9947 211.115H-71.2822L-93.4099 233.243H-189.806L-226.812 196.22H-247.084L-265.071 178.233H-348.651L-313.862 213.005H-237.807C-237.36 211.39 -235.9 210.205 -234.147 210.205C-232.034 210.205 -230.316 211.923 -230.316 214.036C-230.316 216.149 -232.034 217.85 -234.147 217.85C-235.9 217.85 -237.36 216.664 -237.807 215.049H-314.704L-375.521 154.25H-432.61L-510.778 76.0813H-549.209L-566.888 93.7422C-566.063 95.2025 -566.252 97.0751 -567.506 98.312C-569.001 99.8067 -571.423 99.8067 -572.901 98.312C-574.395 96.8174 -574.395 94.395 -572.901 92.9176L-572.883 92.9004Z" fill="url(#paint21_linear_149_3751)"/>
</g>
</g>
<defs>
<linearGradient id="paint0_linear_149_3751" x1="184" y1="113.5" x2="184" y2="201" gradientUnits="userSpaceOnUse">
<stop stop-color="#01BFBD"/>
<stop offset="1" stop-color="#C4FDD3"/>
</linearGradient>
<linearGradient id="paint1_linear_149_3751" x1="184" y1="84.5" x2="184" y2="185.5" gradientUnits="userSpaceOnUse">
<stop stop-color="#01BFBD"/>
<stop offset="1" stop-color="#01BFBD" stop-opacity="0.25"/>
</linearGradient>
<linearGradient id="paint2_linear_149_3751" x1="109.467" y1="257.81" x2="-510.28" y2="257.81" gradientUnits="userSpaceOnUse">
<stop stop-color="#D6D6D6"/>
<stop offset="0.29" stop-color="#929399"/>
<stop offset="0.45" stop-color="#6C6E7A"/>
<stop offset="0.71" stop-color="#32374C"/>
<stop offset="0.9" stop-color="#0E152F"/>
<stop offset="1" stop-color="#010825"/>
</linearGradient>
<linearGradient id="paint3_linear_149_3751" x1="125.41" y1="35.4509" x2="-515.159" y2="35.4509" gradientUnits="userSpaceOnUse">
<stop stop-color="#D6D6D6"/>
<stop offset="0.29" stop-color="#929399"/>
<stop offset="0.45" stop-color="#6C6E7A"/>
<stop offset="0.71" stop-color="#32374C"/>
<stop offset="0.9" stop-color="#0E152F"/>
<stop offset="1" stop-color="#010825"/>
</linearGradient>
<linearGradient id="paint4_linear_149_3751" x1="236.203" y1="98.2776" x2="-507.239" y2="98.2776" gradientUnits="userSpaceOnUse">
<stop stop-color="#D6D6D6"/>
<stop offset="0.29" stop-color="#929399"/>
<stop offset="0.45" stop-color="#6C6E7A"/>
<stop offset="0.71" stop-color="#32374C"/>
<stop offset="0.9" stop-color="#0E152F"/>
<stop offset="1" stop-color="#010825"/>
</linearGradient>
<linearGradient id="paint5_linear_149_3751" x1="166.694" y1="169.832" x2="-506.62" y2="169.832" gradientUnits="userSpaceOnUse">
<stop stop-color="#D6D6D6"/>
<stop offset="0.29" stop-color="#929399"/>
<stop offset="0.45" stop-color="#6C6E7A"/>
<stop offset="0.71" stop-color="#32374C"/>
<stop offset="0.9" stop-color="#0E152F"/>
<stop offset="1" stop-color="#010825"/>
</linearGradient>
<linearGradient id="paint6_linear_149_3751" x1="233.919" y1="234.428" x2="-185.923" y2="234.428" gradientUnits="userSpaceOnUse">
<stop stop-color="#D6D6D6"/>
<stop offset="0.29" stop-color="#929399"/>
<stop offset="0.45" stop-color="#6C6E7A"/>
<stop offset="0.71" stop-color="#32374C"/>
<stop offset="0.9" stop-color="#0E152F"/>
<stop offset="1" stop-color="#010825"/>
</linearGradient>
<linearGradient id="paint7_linear_149_3751" x1="192.292" y1="229.48" x2="-38.314" y2="229.48" gradientUnits="userSpaceOnUse">
<stop stop-color="#D6D6D6"/>
<stop offset="0.29" stop-color="#929399"/>
<stop offset="0.45" stop-color="#6C6E7A"/>
<stop offset="0.71" stop-color="#32374C"/>
<stop offset="0.9" stop-color="#0E152F"/>
<stop offset="1" stop-color="#010825"/>
</linearGradient>
<linearGradient id="paint8_linear_149_3751" x1="193.752" y1="199.708" x2="-126.876" y2="199.708" gradientUnits="userSpaceOnUse">
<stop stop-color="#D6D6D6"/>
<stop offset="0.29" stop-color="#929399"/>
<stop offset="0.45" stop-color="#6C6E7A"/>
<stop offset="0.71" stop-color="#32374C"/>
<stop offset="0.9" stop-color="#0E152F"/>
<stop offset="1" stop-color="#010825"/>
</linearGradient>
<linearGradient id="paint9_linear_149_3751" x1="206.86" y1="72.3017" x2="-419.639" y2="72.3017" gradientUnits="userSpaceOnUse">
<stop stop-color="#D6D6D6"/>
<stop offset="0.29" stop-color="#929399"/>
<stop offset="0.45" stop-color="#6C6E7A"/>
<stop offset="0.71" stop-color="#32374C"/>
<stop offset="0.9" stop-color="#0E152F"/>
<stop offset="1" stop-color="#010825"/>
</linearGradient>
<linearGradient id="paint10_linear_149_3751" x1="202.754" y1="92.9863" x2="-349.94" y2="92.9863" gradientUnits="userSpaceOnUse">
<stop stop-color="#D6D6D6"/>
<stop offset="0.29" stop-color="#929399"/>
<stop offset="0.45" stop-color="#6C6E7A"/>
<stop offset="0.71" stop-color="#32374C"/>
<stop offset="0.9" stop-color="#0E152F"/>
<stop offset="1" stop-color="#010825"/>
</linearGradient>
<linearGradient id="paint11_linear_149_3751" x1="184.921" y1="157.892" x2="18.2594" y2="157.892" gradientUnits="userSpaceOnUse">
<stop stop-color="#D6D6D6"/>
<stop offset="0.29" stop-color="#929399"/>
<stop offset="0.45" stop-color="#6C6E7A"/>
<stop offset="0.71" stop-color="#32374C"/>
<stop offset="0.9" stop-color="#0E152F"/>
<stop offset="1" stop-color="#010825"/>
</linearGradient>
<linearGradient id="paint12_linear_149_3751" x1="260.358" y1="89.7908" x2="28.1035" y2="89.7908" gradientUnits="userSpaceOnUse">
<stop stop-color="#D6D6D6"/>
<stop offset="0.29" stop-color="#929399"/>
<stop offset="0.45" stop-color="#6C6E7A"/>
<stop offset="0.71" stop-color="#32374C"/>
<stop offset="0.9" stop-color="#0E152F"/>
<stop offset="1" stop-color="#010825"/>
</linearGradient>
<linearGradient id="paint13_linear_149_3751" x1="206.396" y1="142.791" x2="42.861" y2="142.791" gradientUnits="userSpaceOnUse">
<stop stop-color="#D6D6D6"/>
<stop offset="0.29" stop-color="#929399"/>
<stop offset="0.45" stop-color="#6C6E7A"/>
<stop offset="0.71" stop-color="#32374C"/>
<stop offset="0.9" stop-color="#0E152F"/>
<stop offset="1" stop-color="#010825"/>
</linearGradient>
<linearGradient id="paint14_linear_149_3751" x1="211.774" y1="168.492" x2="130.599" y2="168.492" gradientUnits="userSpaceOnUse">
<stop stop-color="#D6D6D6"/>
<stop offset="0.29" stop-color="#929399"/>
<stop offset="0.45" stop-color="#6C6E7A"/>
<stop offset="0.71" stop-color="#32374C"/>
<stop offset="0.9" stop-color="#0E152F"/>
<stop offset="1" stop-color="#010825"/>
</linearGradient>
<linearGradient id="paint15_linear_149_3751" x1="245.085" y1="145.265" x2="58.426" y2="145.265" gradientUnits="userSpaceOnUse">
<stop stop-color="#D6D6D6"/>
<stop offset="0.29" stop-color="#929399"/>
<stop offset="0.45" stop-color="#6C6E7A"/>
<stop offset="0.71" stop-color="#32374C"/>
<stop offset="0.9" stop-color="#0E152F"/>
<stop offset="1" stop-color="#010825"/>
</linearGradient>
<linearGradient id="paint16_linear_149_3751" x1="137.161" y1="107.606" x2="84.6941" y2="107.606" gradientUnits="userSpaceOnUse">
<stop stop-color="#D6D6D6"/>
<stop offset="0.29" stop-color="#929399"/>
<stop offset="0.45" stop-color="#6C6E7A"/>
<stop offset="0.71" stop-color="#32374C"/>
<stop offset="0.9" stop-color="#0E152F"/>
<stop offset="1" stop-color="#010825"/>
</linearGradient>
<linearGradient id="paint17_linear_149_3751" x1="233.919" y1="14.2852" x2="64.9887" y2="14.2852" gradientUnits="userSpaceOnUse">
<stop stop-color="#D6D6D6"/>
<stop offset="0.29" stop-color="#929399"/>
<stop offset="0.45" stop-color="#6C6E7A"/>
<stop offset="0.71" stop-color="#32374C"/>
<stop offset="0.9" stop-color="#0E152F"/>
<stop offset="1" stop-color="#010825"/>
</linearGradient>
<linearGradient id="paint18_linear_149_3751" x1="259.345" y1="26.8952" x2="74.0254" y2="26.8952" gradientUnits="userSpaceOnUse">
<stop stop-color="#D6D6D6"/>
<stop offset="0.29" stop-color="#929399"/>
<stop offset="0.45" stop-color="#6C6E7A"/>
<stop offset="0.71" stop-color="#32374C"/>
<stop offset="0.9" stop-color="#0E152F"/>
<stop offset="1" stop-color="#010825"/>
</linearGradient>
<linearGradient id="paint19_linear_149_3751" x1="217.512" y1="28.5961" x2="146.181" y2="28.5961" gradientUnits="userSpaceOnUse">
<stop stop-color="#D6D6D6"/>
<stop offset="0.29" stop-color="#929399"/>
<stop offset="0.45" stop-color="#6C6E7A"/>
<stop offset="0.71" stop-color="#32374C"/>
<stop offset="0.9" stop-color="#0E152F"/>
<stop offset="1" stop-color="#010825"/>
</linearGradient>
<linearGradient id="paint20_linear_149_3751" x1="74.1112" y1="126.539" x2="-567.231" y2="126.539" gradientUnits="userSpaceOnUse">
<stop stop-color="#C9C9C9"/>
<stop offset="0.53" stop-color="#E7E7E7"/>
<stop offset="1" stop-color="white"/>
</linearGradient>
<linearGradient id="paint21_linear_149_3751" x1="180.919" y1="175.433" x2="-574" y2="175.433" gradientUnits="userSpaceOnUse">
<stop stop-color="#C9C9C9"/>
<stop offset="0.53" stop-color="#E7E7E7"/>
<stop offset="1" stop-color="white"/>
</linearGradient>
<clipPath id="clip0_149_3751">
<rect width="375" height="200" fill="white"/>
</clipPath>
<clipPath id="clip1_149_3751">
<rect width="834" height="237" fill="white" transform="matrix(-1 0 0 1 260 0)"/>
</clipPath>
</defs>
</svg>
